<svg xmlns="http://www.w3.org/2000/svg" xmlns:xlink="http://www.w3.org/1999/xlink" width="500" zoomAndPan="magnify" viewBox="0 0 375 374.999991" height="500" preserveAspectRatio="xMidYMid meet" version="1.0"><defs><clipPath id="2aeaa057dd"><path d="M 67.050781 177.980469 L 86.089844 177.980469 L 86.089844 197.019531 L 67.050781 197.019531 Z M 67.050781 177.980469 " clip-rule="nonzero"/></clipPath><clipPath id="2f6a591043"><path d="M 76.570312 177.980469 C 71.3125 177.980469 67.050781 182.242188 67.050781 187.5 C 67.050781 192.757812 71.3125 197.019531 76.570312 197.019531 C 81.828125 197.019531 86.089844 192.757812 86.089844 187.5 C 86.089844 182.242188 81.828125 177.980469 76.570312 177.980469 Z M 76.570312 177.980469 " clip-rule="nonzero"/></clipPath><clipPath id="4684cd13ba"><path d="M 0.0507812 0.980469 L 19.089844 0.980469 L 19.089844 20.019531 L 0.0507812 20.019531 Z M 0.0507812 0.980469 " clip-rule="nonzero"/></clipPath><clipPath id="e52e46bc6f"><path d="M 9.570312 0.980469 C 4.3125 0.980469 0.0507812 5.242188 0.0507812 10.5 C 0.0507812 15.757812 4.3125 20.019531 9.570312 20.019531 C 14.828125 20.019531 19.089844 15.757812 19.089844 10.5 C 19.089844 5.242188 14.828125 0.980469 9.570312 0.980469 Z M 9.570312 0.980469 " clip-rule="nonzero"/></clipPath><clipPath id="968087ce7b"><rect x="0" width="20" y="0" height="21"/></clipPath><clipPath id="6366a56dbe"><path d="M 69.476562 180.40625 L 83.664062 180.40625 L 83.664062 194.59375 L 69.476562 194.59375 Z M 69.476562 180.40625 " clip-rule="nonzero"/></clipPath><clipPath id="e00d51c277"><path d="M 76.570312 180.40625 C 72.652344 180.40625 69.476562 183.582031 69.476562 187.5 C 69.476562 191.417969 72.652344 194.59375 76.570312 194.59375 C 80.488281 194.59375 83.664062 191.417969 83.664062 187.5 C 83.664062 183.582031 80.488281 180.40625 76.570312 180.40625 Z M 76.570312 180.40625 " clip-rule="nonzero"/></clipPath><clipPath id="6b80597b9a"><path d="M 0.476562 0.40625 L 14.664062 0.40625 L 14.664062 14.59375 L 0.476562 14.59375 Z M 0.476562 0.40625 " clip-rule="nonzero"/></clipPath><clipPath id="c52c7a75a0"><path d="M 7.570312 0.40625 C 3.652344 0.40625 0.476562 3.582031 0.476562 7.5 C 0.476562 11.417969 3.652344 14.59375 7.570312 14.59375 C 11.488281 14.59375 14.664062 11.417969 14.664062 7.5 C 14.664062 3.582031 11.488281 0.40625 7.570312 0.40625 Z M 7.570312 0.40625 " clip-rule="nonzero"/></clipPath><clipPath id="3fcfb04b09"><rect x="0" width="15" y="0" height="15"/></clipPath><clipPath id="f60e87419b"><path d="M 288.898438 177.96875 L 307.941406 177.96875 L 307.941406 197.011719 L 288.898438 197.011719 Z M 288.898438 177.96875 " clip-rule="nonzero"/></clipPath><clipPath id="4727596a24"><path d="M 298.417969 197.011719 C 303.679688 197.011719 307.941406 192.75 307.941406 187.488281 C 307.941406 182.230469 303.679688 177.96875 298.417969 177.96875 C 293.160156 177.96875 288.898438 182.230469 288.898438 187.488281 C 288.898438 192.75 293.160156 197.011719 298.417969 197.011719 Z M 298.417969 197.011719 " clip-rule="nonzero"/></clipPath><clipPath id="04c1a3d1dd"><path d="M 0.898438 0.96875 L 19.941406 0.96875 L 19.941406 20.011719 L 0.898438 20.011719 Z M 0.898438 0.96875 " clip-rule="nonzero"/></clipPath><clipPath id="491ec4ed53"><path d="M 10.417969 20.011719 C 15.679688 20.011719 19.941406 15.75 19.941406 10.488281 C 19.941406 5.230469 15.679688 0.96875 10.417969 0.96875 C 5.160156 0.96875 0.898438 5.230469 0.898438 10.488281 C 0.898438 15.75 5.160156 20.011719 10.417969 20.011719 Z M 10.417969 20.011719 " clip-rule="nonzero"/></clipPath><clipPath id="3b97dd3da5"><rect x="0" width="20" y="0" height="21"/></clipPath><clipPath id="2ac58c99c6"><path d="M 291.328125 180.398438 L 305.515625 180.398438 L 305.515625 194.585938 L 291.328125 194.585938 Z M 291.328125 180.398438 " clip-rule="nonzero"/></clipPath><clipPath id="ba19d17207"><path d="M 298.421875 194.585938 C 302.339844 194.585938 305.515625 191.410156 305.515625 187.492188 C 305.515625 183.574219 302.339844 180.398438 298.421875 180.398438 C 294.503906 180.398438 291.328125 183.574219 291.328125 187.492188 C 291.328125 191.410156 294.503906 194.585938 298.421875 194.585938 Z M 298.421875 194.585938 " clip-rule="nonzero"/></clipPath><clipPath id="cf653e7ab3"><path d="M 0.328125 0.398438 L 14.515625 0.398438 L 14.515625 14.585938 L 0.328125 14.585938 Z M 0.328125 0.398438 " clip-rule="nonzero"/></clipPath><clipPath id="635721ed03"><path d="M 7.421875 14.585938 C 11.339844 14.585938 14.515625 11.410156 14.515625 7.492188 C 14.515625 3.574219 11.339844 0.398438 7.421875 0.398438 C 3.503906 0.398438 0.328125 3.574219 0.328125 7.492188 C 0.328125 11.410156 3.503906 14.585938 7.421875 14.585938 Z M 7.421875 14.585938 " clip-rule="nonzero"/></clipPath><clipPath id="661f602a10"><rect x="0" width="15" y="0" height="15"/></clipPath></defs><g clip-path="url(#2aeaa057dd)"><g clip-path="url(#2f6a591043)"><g transform="matrix(1, 0, 0, 1, 67, 177)"><g clip-path="url(#968087ce7b)"><g clip-path="url(#4684cd13ba)"><g clip-path="url(#e52e46bc6f)"><path fill="#2e2e2e" d="M 0.0507812 0.980469 L 19.089844 0.980469 L 19.089844 20.019531 L 0.0507812 20.019531 Z M 0.0507812 0.980469 " fill-opacity="1" fill-rule="nonzero"/></g></g></g></g></g></g><g clip-path="url(#6366a56dbe)"><g clip-path="url(#e00d51c277)"><g transform="matrix(1, 0, 0, 1, 69, 180)"><g clip-path="url(#3fcfb04b09)"><g clip-path="url(#6b80597b9a)"><g clip-path="url(#c52c7a75a0)"><path fill="#d9d9d9" d="M 0.476562 0.40625 L 14.664062 0.40625 L 14.664062 14.59375 L 0.476562 14.59375 Z M 0.476562 0.40625 " fill-opacity="1" fill-rule="nonzero"/></g></g></g></g></g></g><path stroke-linecap="round" transform="matrix(0.75, 0, 0, 0.75, 83.664769, 185.999988)" fill="none" stroke-linejoin="miter" d="M 1.999058 2.000016 L 105.207398 2.000016 " stroke="#2e2e2e" stroke-width="4" stroke-opacity="1" stroke-miterlimit="4"/><g clip-path="url(#f60e87419b)"><g clip-path="url(#4727596a24)"><g transform="matrix(1, 0, 0, 1, 288, 177)"><g clip-path="url(#3b97dd3da5)"><g clip-path="url(#04c1a3d1dd)"><g clip-path="url(#491ec4ed53)"><path fill="#2e2e2e" d="M 19.941406 20.011719 L 0.898438 20.011719 L 0.898438 0.96875 L 19.941406 0.96875 Z M 19.941406 20.011719 " fill-opacity="1" fill-rule="nonzero"/></g></g></g></g></g></g><g clip-path="url(#2ac58c99c6)"><g clip-path="url(#ba19d17207)"><g transform="matrix(1, 0, 0, 1, 291, 180)"><g clip-path="url(#661f602a10)"><g clip-path="url(#cf653e7ab3)"><g clip-path="url(#635721ed03)"><path fill="#d9d9d9" d="M 14.515625 14.585938 L 0.328125 14.585938 L 0.328125 0.398438 L 14.515625 0.398438 Z M 14.515625 14.585938 " fill-opacity="1" fill-rule="nonzero"/></g></g></g></g></g></g><path stroke-linecap="round" transform="matrix(-0.75, 0, 0, -0.75, 291.332885, 188.999988)" fill="none" stroke-linejoin="miter" d="M 2.001138 1.999984 L 105.20427 1.999984 " stroke="#2e2e2e" stroke-width="4" stroke-opacity="1" stroke-miterlimit="4"/></svg>