<svg xmlns="http://www.w3.org/2000/svg" xmlns:xlink="http://www.w3.org/1999/xlink" width="40" zoomAndPan="magnify" viewBox="0 0 30 30.000001" height="40" preserveAspectRatio="xMidYMid meet" version="1.0"><defs><clipPath id="f5fa539656"><path d="M 9.214844 8.710938 L 20.828125 8.710938 L 20.828125 20.324219 L 9.214844 20.324219 Z M 9.214844 8.710938 " clip-rule="nonzero"/></clipPath><clipPath id="dc6d2cef6d"><path d="M 11.734375 8.710938 L 18.265625 8.710938 L 18.265625 15.242188 L 11.734375 15.242188 Z M 11.734375 8.710938 " clip-rule="nonzero"/></clipPath><clipPath id="26b1022bed"><path d="M 15 8.710938 C 13.195312 8.710938 11.734375 10.171875 11.734375 11.976562 C 11.734375 13.78125 13.195312 15.242188 15 15.242188 C 16.804688 15.242188 18.265625 13.78125 18.265625 11.976562 C 18.265625 10.171875 16.804688 8.710938 15 8.710938 Z M 15 8.710938 " clip-rule="nonzero"/></clipPath><clipPath id="5c75659fe1"><path d="M 0.734375 0.710938 L 7.265625 0.710938 L 7.265625 7.242188 L 0.734375 7.242188 Z M 0.734375 0.710938 " clip-rule="nonzero"/></clipPath><clipPath id="ef694dfa28"><path d="M 4 0.710938 C 2.195312 0.710938 0.734375 2.171875 0.734375 3.976562 C 0.734375 5.78125 2.195312 7.242188 4 7.242188 C 5.804688 7.242188 7.265625 5.78125 7.265625 3.976562 C 7.265625 2.171875 5.804688 0.710938 4 0.710938 Z M 4 0.710938 " clip-rule="nonzero"/></clipPath><clipPath id="8c052ee937"><rect x="0" width="8" y="0" height="8"/></clipPath></defs><g clip-path="url(#f5fa539656)"><path fill="#2e2e2e" d="M 14.941406 8.710938 C 16.75 8.710938 18.234375 10.191406 18.234375 12 C 18.234375 13.824219 16.75 15.292969 14.941406 15.292969 C 13.117188 15.292969 11.636719 13.824219 11.636719 12 C 11.636719 10.191406 13.117188 8.710938 14.941406 8.710938 Z M 12.820312 15.847656 L 17.191406 15.847656 C 19.171875 15.847656 20.78125 17.457031 20.78125 19.4375 L 20.78125 20.320312 L 20.054688 20.320312 L 20.054688 19.4375 C 20.054688 17.871094 18.773438 16.574219 17.191406 16.574219 L 12.820312 16.574219 C 11.238281 16.574219 9.957031 17.871094 9.957031 19.4375 L 9.957031 20.320312 L 9.214844 20.320312 L 9.214844 19.4375 C 9.214844 17.457031 10.839844 15.847656 12.820312 15.847656 Z M 14.941406 9.4375 C 13.515625 9.4375 12.378906 10.589844 12.378906 12 C 12.378906 13.425781 13.515625 14.566406 14.941406 14.566406 C 16.351562 14.566406 17.492188 13.425781 17.492188 12 C 17.492188 10.589844 16.351562 9.4375 14.941406 9.4375 Z M 14.941406 9.4375 " fill-opacity="1" fill-rule="nonzero"/></g><g clip-path="url(#dc6d2cef6d)"><g clip-path="url(#26b1022bed)"><g transform="matrix(1, 0, 0, 1, 11, 8)"><g clip-path="url(#8c052ee937)"><g clip-path="url(#5c75659fe1)"><g clip-path="url(#ef694dfa28)"><path fill="#2e2e2e" d="M 0.734375 0.710938 L 7.265625 0.710938 L 7.265625 7.242188 L 0.734375 7.242188 Z M 0.734375 0.710938 " fill-opacity="1" fill-rule="nonzero"/></g></g></g></g></g></g></svg>